<svg width="239" height="204" viewBox="0 0 239 204" fill="none" xmlns="http://www.w3.org/2000/svg">
<rect width="127.911" height="54.761" rx="27.3805" transform="matrix(0.999999 -0.00113815 -0.0011232 0.999999 56.2974 50.3842)" fill="#0C3333"/>
<rect width="127.911" height="54.761" rx="27.3805" transform="matrix(0.999999 -0.00113815 -0.0011232 0.999999 56.2974 50.3842)" fill="#0C3333"/>
<rect width="127.911" height="54.761" rx="27.3805" transform="matrix(0.999999 -0.00113815 -0.0011232 0.999999 56.2974 50.3842)" fill="#0C3333"/>
<rect x="8.68652" width="231.143" height="54.7662" rx="27.3831" transform="rotate(4.8541 8.68652 0)" fill="#0C3333"/>
<rect x="8.68652" width="231.143" height="54.7662" rx="27.3831" transform="rotate(4.8541 8.68652 0)" fill="#0C3333"/>
<rect x="8.68652" width="231.143" height="54.7662" rx="27.3831" transform="rotate(4.8541 8.68652 0)" fill="#0C3333"/>
<path d="M95.8325 89.0958C95.1046 89.4044 94.3209 89.6991 93.4812 89.9799C92.6695 90.2326 91.8298 90.4295 90.9623 90.5704C90.1228 90.7113 89.2973 90.7822 88.4858 90.7831C87.2827 90.7845 86.1777 90.5899 85.1709 90.1994C84.164 89.7808 83.3534 89.1103 82.7388 88.1876C82.1523 87.237 81.8599 85.9642 81.8617 84.3694L81.8728 74.2546L79.1448 74.2578L79.1514 68.2561L81.8794 68.2529L81.887 61.3278L89.8614 61.3186L89.8537 68.2436L94.1766 68.2386L94.17 74.2403L89.8471 74.2454L89.8391 81.5481C89.8383 82.2756 89.9916 82.7931 90.299 83.1005C90.6065 83.3799 91.026 83.5194 91.5577 83.5187C91.9494 83.5183 92.3971 83.4478 92.9009 83.3073C93.4047 83.1668 93.9086 82.9984 94.4124 82.8019L95.8325 89.0958ZM120.293 90.2845L112.319 90.2938L112.333 77.8707C112.334 76.7794 112.083 75.9963 111.58 75.5212C111.105 75.0181 110.504 74.767 109.776 74.7678C109.44 74.7682 109.02 74.8946 108.517 75.147C108.041 75.3994 107.579 75.7637 107.13 76.2399C106.682 76.716 106.332 77.2761 106.079 77.9199L106.066 90.301L98.0913 90.3103L98.125 59.6722L106.099 59.6629L106.086 71.4985C106.871 70.2944 107.893 69.3839 109.153 68.7669C110.441 68.1218 111.854 67.7984 113.393 67.7966C114.96 67.7948 116.205 68.0592 117.128 68.5897C118.05 69.0923 118.735 69.749 119.182 70.5599C119.629 71.3708 119.922 72.2379 120.06 73.1611C120.227 74.0842 120.31 74.9515 120.309 75.7629L120.293 90.2845ZM122.949 83.6082C122.95 82.1253 123.358 80.8238 124.17 79.7036C124.983 78.5555 126.103 77.6588 127.531 77.0136C128.986 76.3684 130.638 76.0447 132.484 76.0426C133.352 76.0416 134.163 76.1106 134.918 76.2496C135.702 76.3886 136.373 76.5977 136.932 76.8768L136.933 76.2053C136.934 75.17 136.627 74.4009 136.012 73.898C135.425 73.3951 134.46 73.1444 133.117 73.1459C131.886 73.1473 130.725 73.3585 129.633 73.7795C128.569 74.1725 127.449 74.7613 126.273 75.5461L123.97 70.5964C125.454 69.6433 127.008 68.942 128.631 68.4924C130.283 68.0149 132.046 67.775 133.92 67.7728C137.418 67.7688 140.117 68.5631 142.018 70.1557C143.947 71.7204 144.91 74.0556 144.906 77.1614L144.902 81.4423C144.901 82.1978 145.012 82.7293 145.236 83.0368C145.459 83.3163 145.851 83.4837 146.41 83.5391L146.403 90.2543C145.759 90.3949 145.143 90.4935 144.556 90.5502C143.996 90.6348 143.492 90.6773 143.045 90.6779C141.618 90.6795 140.527 90.429 139.772 89.9262C139.045 89.3954 138.57 88.6265 138.347 87.6195L138.18 86.8223C137.2 88.0825 136.065 89.0491 134.778 89.7221C133.49 90.3672 132.118 90.6905 130.663 90.6922C129.209 90.6939 127.894 90.3876 126.719 89.7735C125.545 89.1593 124.622 88.3209 123.952 87.2585C123.282 86.168 122.947 84.9513 122.949 83.6082ZM135.875 84.1389C136.183 83.9147 136.435 83.6765 136.631 83.4245C136.827 83.1445 136.926 82.8645 136.926 82.5847L136.928 80.9479C136.48 80.7806 135.963 80.6413 135.375 80.53C134.816 80.4187 134.312 80.3634 133.865 80.3639C132.913 80.365 132.102 80.6038 131.43 81.0802C130.785 81.5566 130.463 82.1586 130.462 82.886C130.462 83.2778 130.573 83.6414 130.797 83.9769C131.02 84.2844 131.328 84.5358 131.719 84.7313C132.111 84.8987 132.558 84.9821 133.062 84.9815C133.538 84.981 134.027 84.9104 134.531 84.77C135.063 84.6015 135.511 84.3911 135.875 84.1389ZM164.526 89.0161C163.798 89.3247 163.014 89.6194 162.174 89.9002C161.363 90.153 160.523 90.3498 159.655 90.4907C158.816 90.6316 157.99 90.7025 157.179 90.7034C155.976 90.7048 154.871 90.5102 153.864 90.1197C152.857 89.7012 152.047 89.0306 151.432 88.108C150.845 87.1573 150.553 85.8846 150.555 84.2897L150.566 74.1749L147.838 74.1781L147.845 68.1764L150.573 68.1732L150.58 61.2482L158.555 61.2389L158.547 68.164L162.87 68.1589L162.863 74.1607L158.54 74.1657L158.532 81.4685C158.531 82.1959 158.685 82.7134 158.992 83.0208C159.3 83.3003 159.719 83.4397 160.251 83.4391C160.643 83.4386 161.09 83.3681 161.594 83.2276C162.098 83.0872 162.602 82.9187 163.106 82.7223L164.526 89.0161Z" fill="white"/>
<path d="M24.8539 30.3724C25.0386 28.1978 25.6073 26.2945 26.5602 24.6624C27.5434 23.0049 28.8013 21.7498 30.3339 20.8971C31.8688 20.0165 33.5703 19.6555 35.4382 19.8141C36.8601 19.9348 38.142 20.3806 39.284 21.1515C40.4284 21.8945 41.2588 22.8636 41.7751 24.0587L42.7763 12.2656L50.7221 12.9402L48.8758 34.6864C48.8119 35.4392 48.8784 35.9784 49.0754 36.304C49.2748 36.6017 49.6509 36.8021 50.2037 36.9052L49.6357 43.5964C48.2459 43.7592 47.1189 43.8039 46.2546 43.7305C44.9164 43.6169 43.8782 43.276 43.1402 42.7079C42.4022 42.1398 41.9654 41.3305 41.83 40.28L41.7302 39.4712C40.8638 40.7456 39.7633 41.635 38.4288 42.1394C37.0942 42.6439 35.7021 42.8346 34.2524 42.7115C32.7468 42.5837 31.3765 42.1865 30.1414 41.5201C28.9342 40.8559 27.8992 39.9818 27.0365 38.8977C26.204 37.788 25.5961 36.5149 25.2126 35.0783C24.8315 33.6138 24.7119 32.0452 24.8539 30.3724ZM40.9506 34.2663L41.2843 30.3352C41.0878 29.6727 40.7867 29.0855 40.3808 28.5737C40.0053 28.0364 39.5644 27.6058 39.0584 27.282C38.5523 26.9583 38.0205 26.7727 37.4629 26.7254C36.8775 26.6757 36.3232 26.755 35.8 26.9633C35.3048 27.1739 34.857 27.4869 34.4567 27.9022C34.0564 28.3175 33.7338 28.8096 33.4889 29.3786C33.244 29.9475 33.0932 30.5665 33.0364 31.2356C32.9772 31.9326 33.0215 32.5682 33.1693 33.1423C33.345 33.7188 33.6103 34.2328 33.9651 34.6841C34.3223 35.1076 34.7563 35.4533 35.267 35.7213C35.7778 35.9893 36.3538 36.1506 36.9951 36.205C37.3854 36.2381 37.7514 36.2271 38.093 36.1719C38.437 36.0887 38.7695 35.9766 39.0904 35.8353C39.4136 35.6662 39.7265 35.4541 40.029 35.1989C40.3617 34.9183 40.6689 34.6074 40.9506 34.2663ZM63.695 45.2112C61.7713 45.0479 60.0815 44.6096 58.6257 43.8963C57.1723 43.1551 55.9736 42.225 55.0296 41.1058C54.1136 39.9891 53.4475 38.7391 53.0314 37.3559C52.6153 35.9727 52.4699 34.5423 52.5954 33.0647C52.7753 30.9458 53.3998 29.0472 54.469 27.3689C55.5405 25.6627 57.0134 24.3556 58.8876 23.4477C60.7643 22.5119 63.0129 22.1552 65.6336 22.3777C68.2543 22.6002 70.4118 23.3169 72.1062 24.5279C73.8005 25.7388 75.0344 27.2476 75.8076 29.0542C76.5809 30.8609 76.8811 32.7818 76.7083 34.817C76.6728 35.2352 76.6083 35.665 76.5146 36.1063C76.4513 36.5222 76.3775 36.895 76.2933 37.2248L60.8619 35.9147C60.8514 36.7 61.006 37.359 61.3258 37.8916C61.6759 38.3987 62.1203 38.7875 62.6589 39.0578C63.2255 39.3306 63.8154 39.493 64.4288 39.5451C65.2931 39.6184 66.1181 39.4919 66.904 39.1655C67.7178 38.8415 68.2797 38.3416 68.5898 37.6659L75.1595 40.1613C74.4746 41.2825 73.5645 42.2442 72.4294 43.0464C71.3221 43.851 70.035 44.4578 68.5682 44.8668C67.1037 45.2479 65.4793 45.3627 63.695 45.2112ZM61.0994 31.133L68.376 31.7508C68.3539 31.0188 68.1969 30.3877 67.9049 29.8575C67.6408 29.3296 67.2558 28.9038 66.7497 28.58C66.2716 28.2586 65.6979 28.0695 65.0288 28.0127C64.3597 27.9559 63.7485 28.0444 63.1951 28.2782C62.6696 28.5144 62.2182 28.8692 61.8411 29.3427C61.4918 29.8185 61.2445 30.4153 61.0994 31.133ZM89.2206 47.3784C87.2691 47.2127 85.5666 46.7593 84.1131 46.0181C82.6876 45.2793 81.504 44.3364 80.5624 43.1894C79.6232 42.0145 78.9467 40.7215 78.5329 39.3104C78.1192 37.8993 77.9763 36.441 78.1041 34.9355C78.2745 32.9282 78.8931 31.0993 79.9599 29.4489C81.0569 27.7729 82.5426 26.481 84.4168 25.573C86.319 24.6675 88.5664 24.3247 91.1593 24.5449C93.8078 24.7698 95.9909 25.5167 97.7084 26.7858C99.4259 28.0548 100.656 29.6054 101.399 31.4376L93.4637 33.1226C93.1462 32.5621 92.7345 32.12 92.2284 31.7962C91.7503 31.4748 91.1906 31.2869 90.5493 31.2325C89.8245 31.1709 89.1527 31.3105 88.5341 31.6511C87.9179 31.9638 87.3989 32.4533 86.9773 33.1195C86.5836 33.7881 86.3441 34.6242 86.2589 35.6279C86.1761 36.6037 86.2711 37.4682 86.5442 38.2215C86.8474 38.9493 87.2752 39.5331 87.8275 39.9732C88.3823 40.3853 89.022 40.6222 89.7469 40.6837C90.193 40.7216 90.602 40.7001 90.9739 40.6194C91.3482 40.5108 91.6993 40.344 92.0273 40.1191C92.3831 39.8966 92.6868 39.6275 92.9382 39.3119L100.476 42.3107C99.7911 43.4319 98.895 44.3948 97.7877 45.1994C96.7083 46.0063 95.4491 46.6155 94.0102 47.0269C92.6015 47.4127 91.0049 47.5299 89.2206 47.3784ZM102.519 48.0862L104.387 26.0891L112.332 26.7637L110.465 48.7608L102.519 48.0862ZM104.543 24.2491L105.111 17.5579L113.057 18.2325L112.489 24.9237L104.543 24.2491ZM123.274 50.2695C121.35 50.1062 119.48 49.6386 117.664 48.8666C115.879 48.0692 114.395 47.0166 113.215 45.7089L116.348 41.0468C117.639 42.0549 118.89 42.8631 120.102 43.4715C121.342 44.0822 122.478 44.4314 123.509 44.5189C124.095 44.5687 124.533 44.5356 124.823 44.4199C125.116 44.2763 125.278 44.0233 125.309 43.6608C125.33 43.4099 125.25 43.1925 125.069 43.0087C124.888 42.8249 124.582 42.6304 124.15 42.4252C123.746 42.2224 123.218 41.995 122.565 41.7431C120.889 40.983 119.488 40.2883 118.362 39.6592C117.264 39.0324 116.454 38.3178 115.932 37.5154C115.441 36.6874 115.25 35.6322 115.359 34.3497C115.486 32.8442 115.975 31.5519 116.825 30.4727C117.677 29.3657 118.829 28.5368 120.279 27.986C121.758 27.4376 123.487 27.2475 125.467 27.4155C126.944 27.541 128.402 27.9034 129.839 28.5028C131.307 29.0767 132.687 30.0222 133.979 31.3394L130.556 35.9348C129.235 34.9522 128.103 34.2383 127.158 33.793C126.24 33.3501 125.406 33.0967 124.653 33.0328C124.29 33.002 123.966 33.0166 123.68 33.0765C123.422 33.1389 123.216 33.2478 123.063 33.4032C122.909 33.5587 122.821 33.7758 122.797 34.0546C122.773 34.3334 122.851 34.5786 123.029 34.7904C123.21 34.9742 123.503 35.1675 123.907 35.3703C124.313 35.5452 124.829 35.7575 125.453 36.0071C127.302 36.7256 128.801 37.4285 129.95 38.1158C131.101 38.7752 131.921 39.5328 132.41 40.3886C132.927 41.2468 133.13 42.3311 133.019 43.6415C132.822 45.9555 131.846 47.6979 130.09 48.8685C128.361 50.0416 126.089 50.5086 123.274 50.2695ZM135.436 50.8809L137.303 28.8838L145.249 29.5584L143.382 51.5555L135.436 50.8809ZM137.46 27.0437L138.028 20.3526L145.973 21.0272L145.405 27.7183L137.46 27.0437ZM158.198 53.2346C156.246 53.0689 154.543 52.6155 153.09 51.8743C151.637 51.1332 150.439 50.1891 149.497 49.0421C148.586 47.8695 147.924 46.5777 147.51 45.1666C147.124 43.7579 146.995 42.3008 147.123 40.7953C147.251 39.2898 147.623 37.8753 148.241 36.5518C148.889 35.2028 149.76 34.0412 150.854 33.067C151.975 32.0951 153.315 31.3664 154.872 30.8809C156.43 30.3953 158.185 30.2354 160.136 30.4011C162.116 30.5692 163.818 31.0226 165.244 31.7614C166.697 32.5026 167.881 33.4455 168.794 34.5901C169.736 35.7372 170.399 37.029 170.782 38.4655C171.196 39.8766 171.339 41.3349 171.211 42.8404C171.083 44.3459 170.696 45.7593 170.051 47.0804C169.433 48.4039 168.562 49.5655 167.438 50.5652C166.344 51.5395 165.019 52.2693 163.461 52.7549C161.932 53.2428 160.177 53.4027 158.198 53.2346ZM155.278 41.4877C155.195 42.4635 155.29 43.328 155.563 44.0813C155.838 44.8067 156.252 45.3894 156.804 45.8294C157.359 46.2416 158.013 46.4796 158.766 46.5435C159.518 46.6074 160.203 46.483 160.819 46.1703C161.438 45.8297 161.944 45.3251 162.338 44.6565C162.734 43.96 162.973 43.1239 163.056 42.1481C163.139 41.1723 163.043 40.3217 162.767 39.5963C162.494 38.843 162.08 38.2603 161.526 37.8482C160.973 37.4081 160.321 37.1562 159.568 37.0923C158.815 37.0283 158.13 37.1667 157.511 37.5073C156.895 37.82 156.389 38.3246 155.992 39.0211C155.599 39.6897 155.36 40.5119 155.278 41.4877ZM195.212 55.956L187.267 55.2814L188.318 42.9028C188.41 41.8155 188.225 41.0136 187.764 40.497C187.332 39.9549 186.796 39.6567 186.155 39.6022C185.709 39.5644 185.223 39.6635 184.697 39.8997C184.174 40.108 183.683 40.4314 183.225 40.8699C182.767 41.3083 182.386 41.8236 182.083 42.4156L181.035 54.7524L173.09 54.0778L174.957 32.0807L182.109 32.6878L181.832 35.9497C182.43 35.1862 183.156 34.5739 184.009 34.1128C184.865 33.6239 185.835 33.285 186.918 33.0961C188.001 32.9073 189.17 32.8661 190.424 32.9726C191.93 33.1004 193.106 33.4671 193.953 34.0725C194.801 34.678 195.412 35.4179 195.787 36.2921C196.162 37.1664 196.38 38.0695 196.441 39.0013C196.505 39.9053 196.505 40.7337 196.441 41.4864L195.212 55.956ZM207.852 57.4504C205.928 57.287 204.059 56.8194 202.243 56.0475C200.457 55.25 198.974 54.1974 197.793 52.8897L200.927 48.2276C202.217 49.2357 203.469 50.044 204.681 50.6523C205.92 51.2631 207.056 51.6122 208.088 51.6998C208.673 51.7495 209.111 51.7165 209.402 51.6008C209.695 51.4571 209.857 51.2041 209.887 50.8417C209.909 50.5908 209.829 50.3734 209.648 50.1895C209.467 50.0057 209.161 49.8112 208.729 49.606C208.325 49.4033 207.796 49.1759 207.144 48.9239C205.467 48.1638 204.066 47.4692 202.94 46.8401C201.842 46.2133 201.032 45.4987 200.511 44.6962C200.019 43.8682 199.828 42.813 199.937 41.5306C200.065 40.025 200.554 38.7327 201.404 37.6536C202.256 36.5465 203.407 35.7176 204.858 35.1669C206.337 34.6185 208.066 34.4283 210.045 34.5963C211.523 34.7218 212.98 35.0842 214.418 35.6836C215.885 36.2575 217.265 37.2031 218.557 38.5203L215.135 43.1157C213.814 42.1331 212.681 41.4191 211.736 40.9738C210.819 40.5309 209.984 40.2775 209.231 40.2136C208.869 40.1828 208.545 40.1974 208.259 40.2574C208.001 40.3197 207.795 40.4286 207.641 40.5841C207.488 40.7395 207.399 40.9566 207.375 41.2354C207.352 41.5142 207.429 41.7595 207.608 41.9712C207.789 42.1551 208.081 42.3484 208.485 42.5512C208.892 42.7261 209.407 42.9383 210.032 43.1879C211.88 43.9065 213.379 44.6094 214.528 45.2966C215.68 45.956 216.5 46.7136 216.989 47.5695C217.506 48.4277 217.708 49.512 217.597 50.8223C217.401 53.1363 216.424 54.8787 214.668 56.0494C212.94 57.2224 210.668 57.6894 207.852 57.4504Z" fill="white"/>
<rect width="158.909" height="55.2722" rx="27.6361" transform="matrix(0.990839 -0.135048 0.0655837 0.997847 40.4673 148.568)" fill="#C1E94E"/>
<rect x="38.9683" y="97.5175" width="158.207" height="55.3821" rx="27.6911" transform="rotate(-0.514363 38.9683 97.5175)" fill="#C1E94E"/>
<path d="M73.5819 184.732C71.6689 184.993 69.7636 184.943 67.8657 184.582C65.9937 184.189 64.3806 183.48 63.0264 182.453L65.4073 177.184C66.8245 177.893 68.1734 178.413 69.454 178.745C70.7624 179.074 71.9294 179.169 72.9552 179.029C73.5374 178.949 73.9625 178.821 74.2306 178.644C74.4968 178.438 74.618 178.154 74.5941 177.791C74.5776 177.54 74.4668 177.344 74.2617 177.203C74.0566 177.062 73.7268 176.938 73.2722 176.831C72.8453 176.72 72.2928 176.612 71.6146 176.507C69.8553 176.127 68.3761 175.751 67.1768 175.38C66.0053 175.004 65.1036 174.479 64.4719 173.805C63.866 173.099 63.5209 172.103 63.4364 170.819C63.3373 169.311 63.6244 167.934 64.2977 166.687C64.9691 165.413 65.9759 164.346 67.3181 163.487C68.6879 162.624 70.357 162.058 72.3254 161.79C73.7948 161.59 75.2797 161.627 76.7803 161.901C78.3067 162.144 79.8025 162.771 81.2676 163.782L78.5928 169.049C77.1497 168.372 75.9311 167.918 74.9369 167.688C73.9704 167.453 73.1129 167.387 72.3644 167.489C72.004 167.538 71.6879 167.624 71.4162 167.745C71.1722 167.863 70.9864 168.015 70.8588 168.201C70.7312 168.388 70.6765 168.621 70.6949 168.9C70.7133 169.179 70.8259 169.403 71.0328 169.572C71.2379 169.713 71.5539 169.839 71.9807 169.95C72.4058 170.033 72.9435 170.129 73.594 170.237C75.5159 170.539 77.0922 170.901 78.3229 171.325C79.5517 171.721 80.4699 172.286 81.0776 173.02C81.7131 173.75 82.0739 174.771 82.1602 176.084C82.3125 178.401 81.614 180.327 80.0646 181.862C78.5428 183.394 76.382 184.351 73.5819 184.732ZM96.4113 181.62C94.4984 181.881 92.7741 181.82 91.2385 181.438C89.701 181.028 88.3854 180.376 87.2918 179.483C86.2258 178.586 85.3854 177.503 84.7705 176.235C84.1557 174.966 83.7996 173.592 83.7023 172.113C83.5629 169.991 83.8927 167.988 84.692 166.104C85.4894 164.193 86.7404 162.586 88.4449 161.283C90.1477 159.952 92.302 159.109 94.9081 158.754C97.5141 158.398 99.7391 158.63 101.583 159.449C103.427 160.268 104.864 161.481 105.892 163.087C106.921 164.694 107.502 166.516 107.636 168.554C107.664 168.973 107.665 169.409 107.638 169.864C107.638 170.286 107.621 170.669 107.588 171.011L92.243 173.103C92.3498 173.878 92.6 174.491 92.9934 174.945C93.4128 175.367 93.907 175.651 94.4762 175.799C95.073 175.943 95.6764 175.973 96.2864 175.89C97.1458 175.773 97.9369 175.468 98.6598 174.975C99.4103 174.478 99.8874 173.864 100.091 173.132L106.913 174.146C106.408 175.398 105.658 176.542 104.663 177.579C103.696 178.613 102.523 179.491 101.144 180.214C99.7632 180.909 98.1856 181.378 96.4113 181.62ZM91.7628 168.352L98.9987 167.365C98.8678 166.651 98.6195 166.065 98.2537 165.608C97.9157 165.147 97.4742 164.812 96.9291 164.605C96.4117 164.394 95.8203 164.334 95.155 164.424C94.4896 164.515 93.9027 164.736 93.3943 165.087C92.9137 165.434 92.5235 165.882 92.2239 166.43C91.9519 166.974 91.7983 167.614 91.7628 168.352ZM132.953 176.216L125.052 177.293L124.237 164.896C124.165 163.808 123.864 163.06 123.334 162.653C122.83 162.215 122.259 162.039 121.621 162.126C121.177 162.187 120.715 162.391 120.235 162.738C119.752 163.057 119.319 163.482 118.934 164.014C118.549 164.545 118.252 165.135 118.043 165.783L118.855 178.138L110.954 179.215L109.506 157.186L116.617 156.217L116.832 159.483C117.305 158.602 117.927 157.841 118.696 157.201C119.463 156.533 120.364 155.987 121.399 155.565C122.435 155.142 123.576 154.845 124.824 154.675C126.321 154.471 127.53 154.574 128.452 154.983C129.374 155.393 130.085 155.986 130.583 156.763C131.082 157.541 131.431 158.38 131.63 159.283C131.827 160.157 131.951 160.971 132 161.725L132.953 176.216ZM145.585 174.916C143.672 175.177 141.766 175.127 139.869 174.766C137.997 174.373 136.383 173.663 135.029 172.637L137.41 167.368C138.827 168.077 140.176 168.597 141.457 168.929C142.765 169.258 143.932 169.352 144.958 169.213C145.54 169.133 145.965 169.005 146.233 168.827C146.5 168.622 146.621 168.338 146.597 167.975C146.58 167.724 146.47 167.528 146.265 167.387C146.059 167.246 145.73 167.121 145.275 167.014C144.848 166.904 144.296 166.796 143.617 166.691C141.858 166.311 140.379 165.935 139.18 165.564C138.008 165.188 137.106 164.663 136.475 163.989C135.869 163.282 135.524 162.287 135.439 161.003C135.34 159.495 135.627 158.118 136.301 156.871C136.972 155.597 137.979 154.53 139.321 153.671C140.691 152.808 142.36 152.242 144.328 151.974C145.798 151.774 147.283 151.811 148.783 152.085C150.31 152.328 151.805 152.955 153.27 153.966L150.596 159.232C149.153 158.556 147.934 158.102 146.94 157.872C145.973 157.637 145.116 157.571 144.367 157.673C144.007 157.722 143.691 157.808 143.419 157.929C143.175 158.047 142.989 158.199 142.862 158.385C142.734 158.572 142.679 158.805 142.698 159.084C142.716 159.363 142.829 159.587 143.036 159.756C143.241 159.897 143.557 160.023 143.984 160.134C144.409 160.217 144.946 160.313 145.597 160.421C147.519 160.722 149.095 161.085 150.326 161.509C151.555 161.905 152.473 162.47 153.08 163.204C153.716 163.934 154.077 164.955 154.163 166.268C154.315 168.585 153.617 170.511 152.067 172.046C150.546 173.578 148.385 174.534 145.585 174.916ZM168.414 171.804C166.501 172.065 164.777 172.004 163.241 171.622C161.704 171.212 160.388 170.56 159.295 169.667C158.229 168.77 157.388 167.687 156.773 166.419C156.159 165.15 155.802 163.776 155.705 162.297C155.566 160.175 155.896 158.172 156.695 156.288C157.492 154.377 158.743 152.769 160.448 151.467C162.151 150.136 164.305 149.293 166.911 148.938C169.517 148.582 171.742 148.814 173.586 149.633C175.43 150.452 176.866 151.665 177.895 153.271C178.924 154.878 179.505 156.7 179.639 158.738C179.667 159.157 179.667 159.593 179.641 160.048C179.641 160.47 179.624 160.853 179.591 161.195L164.246 163.287C164.353 164.061 164.603 164.675 164.996 165.129C165.416 165.55 165.91 165.835 166.479 165.983C167.076 166.127 167.679 166.157 168.289 166.074C169.149 165.957 169.94 165.652 170.663 165.159C171.413 164.662 171.89 164.048 172.094 163.316L178.916 164.33C178.411 165.582 177.661 166.726 176.666 167.763C175.699 168.797 174.526 169.675 173.147 170.398C171.766 171.093 170.188 171.562 168.414 171.804ZM163.766 158.536L171.002 157.549C170.871 156.835 170.622 156.249 170.257 155.792C169.919 155.331 169.477 154.996 168.932 154.789C168.415 154.578 167.823 154.518 167.158 154.608C166.492 154.699 165.906 154.92 165.397 155.271C164.917 155.618 164.526 156.066 164.227 156.614C163.955 157.158 163.801 157.798 163.766 158.536Z" fill="#0C3333"/>
<path d="M99.3446 136.962L91.3706 137.034L91.2589 124.611C91.2491 123.52 91.0182 122.739 90.5663 122.267C90.1421 121.767 89.6222 121.52 89.0067 121.526C88.3912 121.531 87.7223 121.831 87.0001 122.425C86.278 123.019 85.7532 123.779 85.4257 124.706L85.537 137.086L77.563 137.158L77.4513 124.736C77.4415 123.644 77.2107 122.863 76.7587 122.391C76.3345 121.892 75.8146 121.644 75.1991 121.65C74.5836 121.655 73.9147 121.955 73.1925 122.549C72.4704 123.144 71.9456 123.904 71.6181 124.83L71.7294 137.211L63.7555 137.283L63.557 115.207L70.7335 115.143L70.763 118.416C71.5356 117.206 72.6046 116.287 73.97 115.659C75.3352 115.003 76.9551 114.667 78.8297 114.65C80.6483 114.634 82.0228 115.013 82.9531 115.788C83.8835 116.563 84.5069 117.439 84.8235 118.415C85.5961 117.205 86.6649 116.258 88.0298 115.574C89.3947 114.89 90.9305 114.541 92.6373 114.525C94.0922 114.512 95.2557 114.768 96.1278 115.292C96.9999 115.815 97.6496 116.495 98.0768 117.331C98.532 118.166 98.8338 119.045 98.9819 119.967C99.1299 120.861 99.2073 121.685 99.2141 122.441L99.3446 136.962ZM101.947 130.265C101.933 128.782 102.327 127.477 103.129 126.351C103.93 125.197 105.041 124.291 106.462 123.635C107.911 122.978 109.559 122.641 111.406 122.625C112.273 122.617 113.085 122.68 113.842 122.813C114.626 122.946 115.3 123.149 115.862 123.424L115.856 122.753C115.846 121.717 115.532 120.951 114.912 120.453C114.32 119.954 113.352 119.711 112.009 119.723C110.778 119.734 109.619 119.955 108.531 120.384C107.472 120.786 106.358 121.383 105.19 122.177L102.837 117.246C104.311 116.281 105.858 115.568 107.477 115.105C109.123 114.615 110.884 114.361 112.758 114.344C116.255 114.313 118.963 115.086 120.88 116.663C122.824 118.213 123.81 120.54 123.838 123.646L123.877 127.927C123.884 128.682 124 129.213 124.227 129.519C124.453 129.796 124.847 129.961 125.407 130.012L125.467 136.727C124.825 136.872 124.21 136.976 123.623 137.037C123.064 137.126 122.561 137.172 122.113 137.177C120.686 137.189 119.593 136.947 118.833 136.451C118.101 135.926 117.618 135.16 117.385 134.155L117.21 133.359C116.242 134.627 115.118 135.603 113.837 136.286C112.556 136.941 111.188 137.275 109.733 137.288C108.278 137.301 106.96 137.005 105.779 136.4C104.599 135.795 103.668 134.964 102.987 133.907C102.305 132.822 101.959 131.608 101.947 130.265ZM114.878 130.694C115.184 130.468 115.433 130.227 115.627 129.974C115.82 129.692 115.916 129.412 115.913 129.132L115.898 127.495C115.449 127.331 114.93 127.196 114.342 127.089C113.781 126.982 113.277 126.931 112.829 126.935C111.878 126.944 111.069 127.189 110.402 127.67C109.762 128.152 109.446 128.756 109.453 129.484C109.456 129.876 109.571 130.238 109.798 130.572C110.025 130.878 110.335 131.127 110.728 131.319C111.121 131.483 111.57 131.563 112.073 131.559C112.549 131.555 113.038 131.48 113.54 131.336C114.071 131.163 114.516 130.949 114.878 130.694ZM142.91 136.569L137.844 128.556L136.265 130.334L136.321 136.629L128.347 136.701L128.072 106.064L136.046 105.992L136.196 122.737L141.998 114.5L150.392 114.425L142.883 124.146L151.346 136.493L142.91 136.569ZM162.541 136.812C160.611 136.83 158.887 136.551 157.371 135.977C155.855 135.376 154.574 134.562 153.53 133.536C152.513 132.51 151.733 131.327 151.19 129.989C150.646 128.651 150.367 127.24 150.354 125.758C150.335 123.631 150.779 121.682 151.687 119.911C152.594 118.113 153.938 116.673 155.719 115.594C157.5 114.487 159.705 113.921 162.335 113.898C164.965 113.874 167.18 114.386 168.981 115.433C170.781 116.48 172.15 117.866 173.089 119.593C174.028 121.319 174.507 123.204 174.525 125.246C174.529 125.666 174.505 126.1 174.453 126.548C174.429 126.968 174.39 127.346 174.337 127.682L158.851 127.822C158.914 128.604 159.129 129.246 159.498 129.746C159.894 130.219 160.373 130.564 160.934 130.783C161.524 131.001 162.126 131.108 162.742 131.102C163.609 131.094 164.419 130.891 165.171 130.493C165.951 130.094 166.463 129.544 166.709 128.842L173.483 130.712C172.906 131.892 172.09 132.935 171.035 133.84C170.008 134.744 168.783 135.469 167.361 136.013C165.938 136.53 164.332 136.796 162.541 136.812ZM158.64 123.039L165.942 122.973C165.852 122.246 165.637 121.633 165.296 121.132C164.984 120.631 164.561 120.243 164.027 119.968C163.521 119.693 162.932 119.558 162.26 119.564C161.589 119.57 160.988 119.716 160.459 120C159.958 120.285 159.542 120.68 159.211 121.187C158.908 121.693 158.717 122.31 158.64 123.039Z" fill="#0C3333"/>
</svg>
