<svg width="598" height="203" viewBox="0 0 598 203" fill="none" xmlns="http://www.w3.org/2000/svg">
<rect width="497.32" height="106.292" rx="53.1458" transform="matrix(0.997664 -0.0683165 0.129311 0.991604 49.0637 75.0352)" fill="#C1E94E"/>
<path d="M0.475335 58.2941C0.212815 29.0523 23.7052 5.13435 52.9469 4.87183L542.666 0.475341C571.908 0.212821 595.826 23.7051 596.088 52.9469C596.351 82.1887 572.859 106.107 543.617 106.369L298.757 108.567L53.8976 110.766C24.6558 111.028 0.737855 87.5359 0.475335 58.2941Z" fill="#C1E94E"/>
<path d="M36.6172 72.8643L36.2958 37.1882L51.6717 37.05C53.4136 37.0343 55.0247 37.3716 56.505 38.0618C57.9852 38.752 59.2668 39.6953 60.3496 40.8916C61.4321 42.0544 62.2648 43.3702 62.8475 44.839C63.4638 46.3076 63.7787 47.7955 63.7923 49.303C63.8113 51.4134 63.3268 53.4111 62.3387 55.296C61.3841 57.1807 60.0246 58.734 58.26 59.9559C56.5286 61.144 54.4905 61.7486 52.1456 61.7697L46.3168 61.8221L46.4155 72.7762L36.6172 72.8643ZM46.2399 53.28L51.4154 53.2334C51.8174 53.2298 52.2016 53.1091 52.568 52.8713C52.9343 52.6335 53.2322 52.2288 53.4616 51.6572C53.7244 51.0853 53.8516 50.3304 53.8432 49.3925C53.8341 48.3875 53.6764 47.6184 53.3701 47.0851C53.097 46.518 52.7418 46.136 52.3045 45.9389C51.9004 45.708 51.4974 45.5944 51.0954 45.598L46.1711 45.6423L46.2399 53.28ZM85.0445 54.1371C83.2021 54.1536 81.529 54.3697 80.0252 54.7852C78.5213 55.2008 77.4052 55.8808 76.6767 56.8254L76.8179 72.5028L67.2708 72.5886L67.0327 46.1582L75.7758 46.0796L75.8211 51.1044C76.7431 49.3205 77.9033 47.9533 79.3018 47.0027C80.7 46.0186 82.1863 45.5194 83.7607 45.5053C84.1292 45.502 84.3804 45.4997 84.5144 45.4985C84.6819 45.497 84.8328 45.5124 84.9671 45.5447L85.0445 54.1371ZM101.193 72.7861C98.8821 72.8069 96.8187 72.4737 95.0035 71.7865C93.1879 71.0658 91.6548 70.0913 90.4042 68.863C89.1871 67.6344 88.253 66.219 87.6021 64.6167C86.9511 63.0145 86.6176 61.3257 86.6016 59.5503C86.5787 57.0044 87.1105 54.6713 88.1969 52.5509C89.283 50.3971 90.8923 48.674 93.0248 47.3818C95.1569 46.0561 97.7974 45.379 100.946 45.3507C104.095 45.3224 106.747 45.9351 108.903 47.1888C111.058 48.4424 112.698 50.1027 113.822 52.1697C114.946 54.2367 115.519 56.4929 115.541 58.9383C115.546 59.4408 115.517 59.9603 115.455 60.4969C115.426 60.9997 115.38 61.4523 115.316 61.8549L96.7748 62.0217C96.8503 62.959 97.1084 63.7272 97.5494 64.3263C98.0235 64.8915 98.5967 65.3052 99.2691 65.5671C99.975 65.8288 100.696 65.9563 101.433 65.9497C102.472 65.9403 103.441 65.6971 104.341 65.22C105.275 64.7426 105.889 64.0838 106.183 63.2436L114.294 65.4823C113.603 66.8955 112.626 68.1439 111.363 69.2273C110.133 70.3104 108.667 71.1778 106.964 71.8297C105.261 72.448 103.337 72.7668 101.193 72.7861ZM96.5222 56.2952L105.265 56.2166C105.157 55.3465 104.899 54.6118 104.492 54.0124C104.118 53.4128 103.611 52.9483 102.972 52.6191C102.366 52.2895 101.661 52.1283 100.857 52.1356C100.053 52.1428 99.334 52.3168 98.7005 52.6575C98.1006 52.9979 97.6023 53.4714 97.2058 54.078C96.8427 54.6843 96.6149 55.4233 96.5222 56.2952ZM145.376 71.8863L135.829 71.9721L135.695 57.0987C135.683 55.7923 135.373 54.857 134.765 54.293C134.19 53.6951 133.517 53.3997 132.747 53.4066C132.211 53.4114 131.643 53.584 131.043 53.9244C130.443 54.2313 129.894 54.6718 129.396 55.2458C128.899 55.8198 128.503 56.4766 128.208 57.2163L128.342 72.0395L118.795 72.1253L118.556 45.6949L127.149 45.6176L127.184 49.537C127.812 48.5598 128.609 47.7486 129.574 47.1034C130.54 46.4247 131.657 45.9121 132.927 45.5656C134.197 45.2192 135.586 45.0392 137.093 45.0257C138.902 45.0094 140.346 45.3147 141.423 45.9415C142.501 46.5684 143.312 47.3818 143.857 48.382C144.402 49.3821 144.764 50.4342 144.941 51.5381C145.118 52.6086 145.211 53.596 145.219 54.5005L145.376 71.8863ZM148.477 58.5919C148.453 55.979 148.918 53.6464 149.871 51.5943C150.857 49.5083 152.216 47.8713 153.948 46.6832C155.679 45.4616 157.666 44.8407 159.911 44.8205C161.619 44.8051 163.197 45.1929 164.645 45.984C166.092 46.7415 167.191 47.8036 167.94 49.1705L167.812 35.0005L177.359 34.9147L177.595 61.0436C177.603 61.9481 177.743 62.5833 178.014 62.9494C178.285 63.282 178.756 63.4788 179.426 63.5397L179.499 71.5794C177.86 71.9292 176.522 72.1087 175.484 72.118C173.876 72.1325 172.6 71.8425 171.657 71.2479C170.713 70.6534 170.102 69.7376 169.823 68.5006L169.613 67.5477C168.723 69.1637 167.511 70.3472 165.977 71.098C164.442 71.8488 162.804 72.2321 161.062 72.2477C159.253 72.264 157.575 71.9441 156.028 71.288C154.515 70.6315 153.183 69.7055 152.034 68.5098C150.917 67.2803 150.05 65.8308 149.432 64.1612C148.813 62.4582 148.495 60.6018 148.477 58.5919ZM168.101 61.4305L168.058 56.7072C167.75 55.9394 167.325 55.2732 166.784 54.7086C166.276 54.1101 165.702 53.6463 165.063 53.317C164.423 52.9877 163.769 52.8261 163.099 52.8321C162.395 52.8385 161.743 52.9951 161.143 53.302C160.576 53.6086 160.077 54.0319 159.647 54.5717C159.216 55.1116 158.887 55.7344 158.659 56.44C158.43 57.1455 158.32 57.9003 158.327 58.7043C158.335 59.5417 158.459 60.2944 158.699 60.9623C158.973 61.6298 159.347 62.2127 159.821 62.711C160.294 63.1758 160.85 63.5393 161.489 63.8016C162.128 64.0638 162.832 64.1915 163.603 64.1846C164.072 64.1803 164.507 64.1262 164.908 64.0221C165.309 63.8845 165.692 63.7135 166.059 63.5092C166.425 63.2714 166.775 62.9835 167.107 62.6455C167.472 62.2737 167.803 61.8687 168.101 61.4305ZM201.194 53.0926C199.351 53.1092 197.678 53.3252 196.175 53.7407C194.671 54.1563 193.555 54.8363 192.826 55.7809L192.967 71.4583L183.42 71.5442L183.182 45.1137L191.925 45.0351L191.97 50.0599C192.892 48.276 194.053 46.9088 195.451 45.9582C196.849 44.9741 198.336 44.4749 199.91 44.4608C200.279 44.4575 200.53 44.4552 200.664 44.454C200.831 44.4525 200.982 44.4679 201.116 44.5002L201.194 53.0926ZM217.343 71.7416C215.031 71.7624 212.968 71.4292 211.153 70.742C209.337 70.0213 207.804 69.0468 206.554 67.8185C205.336 66.5899 204.402 65.1745 203.751 63.5723C203.1 61.97 202.767 60.2812 202.751 58.5058C202.728 55.9599 203.26 53.6268 204.346 51.5064C205.432 49.3526 207.042 47.6295 209.174 46.3373C211.306 45.0116 213.947 44.3346 217.096 44.3062C220.245 44.2779 222.897 44.8906 225.052 46.1443C227.207 47.3979 228.847 49.0583 229.971 51.1252C231.096 53.1922 231.669 55.4484 231.691 57.8938C231.695 58.3963 231.666 58.9158 231.604 59.4524C231.575 59.9552 231.529 60.4078 231.466 60.8104L212.924 60.9772C213 61.9145 213.258 62.6827 213.699 63.2818C214.173 63.8471 214.746 64.2607 215.418 64.5226C216.124 64.7843 216.846 64.9118 217.583 64.9052C218.621 64.8958 219.591 64.6526 220.491 64.1755C221.425 63.6981 222.038 63.0393 222.332 62.1991L230.443 64.4378C229.752 65.851 228.775 67.0994 227.512 68.1828C226.282 69.2659 224.816 70.1334 223.113 70.7852C221.41 71.4035 219.487 71.7223 217.343 71.7416ZM212.672 55.2507L221.415 55.1721C221.306 54.302 221.049 53.5673 220.641 52.968C220.267 52.3683 219.76 51.9038 219.121 51.5746C218.515 51.245 217.81 51.0838 217.006 51.0911C216.202 51.0983 215.483 51.2723 214.85 51.613C214.25 51.9534 213.752 52.4269 213.355 53.0335C212.992 53.6398 212.764 54.3788 212.672 55.2507ZM245.897 61.937L245.741 44.5512L255.288 44.4653L255.425 59.6904C255.435 60.8294 255.695 61.7316 256.203 62.3971C256.745 63.0287 257.468 63.3405 258.372 63.3323C258.875 63.3278 259.377 63.2563 259.878 63.1178C260.379 62.9793 260.879 62.7068 261.378 62.3003C261.911 61.8935 262.425 61.3193 262.921 60.5778L262.775 44.398L272.322 44.3121L272.465 60.1905C272.473 61.0949 272.613 61.7302 272.884 62.0963C273.155 62.4289 273.626 62.6256 274.297 62.6866L274.369 70.7263C273.533 70.9013 272.78 71.0253 272.111 71.0984C271.442 71.2049 270.856 71.2604 270.354 71.2649C268.746 71.2794 267.47 70.9893 266.527 70.3948C265.583 69.8003 264.972 68.8845 264.693 67.6474L264.483 66.6945C263.259 68.3471 261.779 69.5497 260.043 70.3023C258.341 71.0212 256.401 71.3904 254.224 71.41C251.578 71.4338 249.527 70.6314 248.072 69.0029C246.65 67.3742 245.925 65.0188 245.897 61.937ZM304.854 70.4521L295.307 70.538L295.173 55.6646C295.161 54.3582 294.851 53.4229 294.243 52.8588C293.668 52.261 292.996 51.9655 292.225 51.9725C291.689 51.9773 291.121 52.1499 290.521 52.4903C289.921 52.7972 289.372 53.2377 288.875 53.8117C288.378 54.3857 287.981 55.0425 287.687 55.7822L287.82 70.6053L278.273 70.6912L278.035 44.2608L286.627 44.1835L286.663 48.1028C287.29 47.1256 288.087 46.3144 289.053 45.6692C290.018 44.9905 291.136 44.478 292.406 44.1315C293.676 43.7851 295.064 43.6051 296.572 43.5915C298.381 43.5753 299.824 43.8806 300.902 44.5074C301.979 45.1342 302.791 45.9477 303.336 46.9478C303.881 47.948 304.242 49 304.42 50.104C304.597 51.1744 304.689 52.1619 304.698 53.0663L304.854 70.4521ZM322.5 70.796C320.189 70.8168 318.126 70.4836 316.31 69.7963C314.495 69.0756 312.962 68.1011 311.711 66.8728C310.494 65.6442 309.56 64.2288 308.909 62.6266C308.258 61.0244 307.925 59.3356 307.909 57.5602C307.886 55.0143 308.417 52.6811 309.504 50.5608C310.59 48.4069 312.199 46.6839 314.332 45.3917C316.464 44.0659 319.104 43.3889 322.253 43.3606C325.402 43.3323 328.054 43.945 330.21 45.1986C332.365 46.4523 334.005 48.1126 335.129 50.1796C336.253 52.2466 336.826 54.5027 336.848 56.9481C336.853 57.4506 336.824 57.9702 336.762 58.5067C336.733 59.0095 336.687 59.4622 336.623 59.8648L318.082 60.0315C318.157 60.9689 318.415 61.7371 318.856 62.3362C319.33 62.9014 319.904 63.315 320.576 63.577C321.282 63.8387 322.003 63.9662 322.74 63.9595C323.779 63.9502 324.748 63.707 325.648 63.2299C326.582 62.7524 327.196 62.0937 327.49 61.2535L335.601 63.4921C334.91 64.9054 333.933 66.1537 332.67 67.2371C331.44 68.3202 329.974 69.1877 328.271 69.8396C326.568 70.4579 324.644 70.7767 322.5 70.796ZM317.829 54.3051L326.572 54.2264C326.464 53.3564 326.206 52.6217 325.799 52.0223C325.425 51.4226 324.918 50.9582 324.279 50.6289C323.673 50.2994 322.968 50.1382 322.164 50.1454C321.36 50.1527 320.641 50.3266 320.008 50.6673C319.408 51.0077 318.909 51.4812 318.513 52.0878C318.15 52.6941 317.922 53.4332 317.829 54.3051ZM349.861 56.7809C349.838 54.168 350.302 51.8355 351.256 49.7833C352.242 47.6974 353.601 46.0603 355.332 44.8722C357.063 43.6506 359.051 43.0297 361.295 43.0095C363.004 42.9941 364.582 43.382 366.029 44.173C367.477 44.9305 368.575 45.9927 369.324 47.3595L369.197 33.1896L378.744 33.1037L378.979 59.2326C378.987 60.1371 379.127 60.7724 379.398 61.1384C379.669 61.471 380.14 61.6678 380.811 61.7288L380.883 69.7684C379.245 70.1182 377.906 70.2977 376.868 70.3071C375.26 70.3215 373.984 70.0315 373.041 69.4369C372.098 68.8424 371.486 67.9266 371.207 66.6896L370.998 65.7367C370.108 67.3527 368.895 68.5362 367.361 69.287C365.827 70.0378 364.189 70.4211 362.447 70.4368C360.638 70.453 358.96 70.1331 357.413 69.477C355.899 68.8206 354.568 67.8945 353.418 66.6988C352.301 65.4693 351.434 64.0198 350.816 62.3503C350.198 60.6473 349.879 58.7908 349.861 56.7809ZM369.485 59.6195L369.443 54.8962C369.134 54.1285 368.709 53.4623 368.168 52.8976C367.66 52.2991 367.087 51.8353 366.447 51.506C365.808 51.1768 365.153 51.0151 364.483 51.0212C363.78 51.0275 363.128 51.1841 362.527 51.491C361.961 51.7976 361.462 52.2209 361.031 52.7608C360.601 53.3007 360.271 53.9234 360.043 54.629C359.815 55.3346 359.704 56.0893 359.712 56.8933C359.719 57.7308 359.843 58.4834 360.084 59.1513C360.358 59.8189 360.732 60.4018 361.205 60.9C361.678 61.3648 362.234 61.7283 362.873 61.9906C363.512 62.2528 364.217 62.3805 364.987 62.3736C365.456 62.3694 365.891 62.3152 366.292 62.2111C366.693 62.0735 367.077 61.9025 367.444 61.6982C367.81 61.4604 368.159 61.1725 368.491 60.8345C368.856 60.4627 369.188 60.0577 369.485 59.6195ZM397.823 70.1186C395.512 70.1394 393.449 69.8062 391.633 69.119C389.818 68.3983 388.285 67.4238 387.034 66.1955C385.817 64.9669 384.883 63.5515 384.232 61.9493C383.581 60.3471 383.247 58.6582 383.231 56.8828C383.209 54.3369 383.74 52.0038 384.827 49.8834C385.913 47.7296 387.522 46.0065 389.655 44.7143C391.787 43.3886 394.427 42.7116 397.576 42.6832C400.725 42.6549 403.377 43.2676 405.533 44.5213C407.688 45.7749 409.328 47.4353 410.452 49.5022C411.576 51.5692 412.149 53.8254 412.171 56.2708C412.176 56.7733 412.147 57.2928 412.085 57.8294C412.056 58.3322 412.01 58.7849 411.946 59.1874L393.405 59.3542C393.48 60.2915 393.738 61.0597 394.179 61.6588C394.653 62.2241 395.227 62.6377 395.899 62.8996C396.605 63.1613 397.326 63.2888 398.063 63.2822C399.102 63.2729 400.071 63.0296 400.971 62.5525C401.905 62.0751 402.519 61.4163 402.813 60.5761L410.924 62.8148C410.233 64.228 409.256 65.4764 407.992 66.5598C406.763 67.6429 405.296 68.5104 403.594 69.1622C401.891 69.7805 399.967 70.0993 397.823 70.1186ZM393.152 53.6277L401.895 53.5491C401.787 52.679 401.529 51.9443 401.122 51.345C400.748 50.7453 400.241 50.2808 399.601 49.9516C398.995 49.622 398.291 49.4608 397.487 49.4681C396.683 49.4753 395.964 49.6493 395.33 49.99C394.73 50.3304 394.232 50.8039 393.836 51.4105C393.473 52.0168 393.245 52.7558 393.152 53.6277ZM400.582 41.6512L394.538 40.0975L396.986 32.9397L405.478 32.8633L400.582 41.6512ZM428.493 69.8428C426.149 69.8639 424.068 69.5141 422.253 68.7934C420.471 68.0724 418.954 67.081 417.703 65.8192C416.452 64.5239 415.501 63.0584 414.85 61.4227C414.198 59.787 413.864 58.0646 413.848 56.2557C413.826 53.8438 414.359 51.5944 415.446 49.5076C416.566 47.3869 418.192 45.6805 420.324 44.3883C422.49 43.0957 425.131 42.4354 428.246 42.4074C431.429 42.3788 434.115 43.0247 436.304 44.3451C438.494 45.6654 440.134 47.376 441.225 49.4768L431.954 52.3742C431.513 51.7417 430.973 51.2608 430.333 50.9315C429.727 50.6019 429.039 50.4406 428.268 50.4476C427.397 50.4554 426.612 50.697 425.913 51.1723C425.214 51.6141 424.65 52.2557 424.222 53.0971C423.827 53.9381 423.636 54.9617 423.647 56.1676C423.657 57.3401 423.867 58.36 424.277 59.2273C424.72 60.0609 425.296 60.709 426.003 61.1716C426.711 61.6008 427.5 61.8114 428.371 61.8036C428.907 61.7988 429.392 61.7274 429.826 61.5895C430.26 61.4181 430.66 61.18 431.026 60.8752C431.425 60.5701 431.757 60.2153 432.021 59.8109L441.342 62.5412C440.652 63.9545 439.691 65.2027 438.462 66.2858C437.265 67.3686 435.832 68.2358 434.163 68.8873C432.527 69.505 430.637 69.8235 428.493 69.8428ZM444.425 69.197L444.187 42.7666L453.734 42.6808L453.972 69.1112L444.425 69.197ZM444.167 40.5557L444.095 32.516L453.642 32.4302L453.714 40.4698L444.167 40.5557ZM469.409 69.4749C467.098 69.4957 464.817 69.1477 462.566 68.4309C460.348 67.6803 458.462 66.5917 456.908 65.1651L460.121 59.2567C461.772 60.3139 463.354 61.1372 464.867 61.7267C466.414 62.3158 467.806 62.6048 469.046 62.5936C469.749 62.5873 470.268 62.4989 470.601 62.3284C470.934 62.1244 471.099 61.8046 471.095 61.3691C471.092 61.0677 470.973 60.8175 470.737 60.6186C470.5 60.4197 470.113 60.2222 469.576 60.026C469.071 59.8295 468.416 59.6177 467.61 59.3904C465.526 58.6721 463.778 58.0011 462.366 57.3772C460.986 56.7531 459.941 55.992 459.229 55.0938C458.551 54.1619 458.205 52.9255 458.191 51.3845C458.175 49.5756 458.613 47.9803 459.505 46.5988C460.396 45.1837 461.676 44.0666 463.344 43.2476C465.045 42.4283 467.085 42.0079 469.463 41.9865C471.239 41.9706 473.017 42.2393 474.797 42.7928C476.611 43.3126 478.362 44.2851 480.05 45.7105L476.484 51.5718C474.8 50.5484 473.37 49.8242 472.193 49.3993C471.051 48.974 470.027 48.7655 469.122 48.7736C468.687 48.7775 468.302 48.8313 467.968 48.9348C467.667 49.038 467.434 49.1908 467.269 49.3933C467.103 49.5958 467.022 49.8646 467.025 50.1995C467.028 50.5345 467.148 50.8182 467.384 51.0506C467.62 51.2495 467.991 51.4472 468.495 51.6436C468.999 51.8066 469.637 52.0019 470.41 52.2294C472.694 52.8789 474.559 53.5489 476.006 54.2394C477.452 54.8965 478.515 55.7077 479.194 56.6731C479.906 57.6383 480.269 58.908 480.283 60.4825C480.308 63.2629 479.34 65.4492 477.378 67.0414C475.449 68.6333 472.793 69.4445 469.409 69.4749ZM483.976 68.8414L483.738 42.4109L493.285 42.3251L493.523 68.7555L483.976 68.8414ZM483.718 40.2L483.645 32.1604L493.192 32.0745L493.265 40.1142L483.718 40.2ZM511.372 69.0975C509.027 69.1186 506.947 68.7688 505.131 68.0481C503.316 67.3274 501.782 66.3361 500.532 65.0743C499.314 63.7787 498.379 62.3131 497.728 60.6774C497.11 59.0414 496.793 57.3189 496.777 55.51C496.761 53.701 497.047 51.9731 497.635 50.3263C498.256 48.6456 499.164 47.1634 500.359 45.8796C501.587 44.5955 503.102 43.5769 504.904 42.8236C506.706 42.0704 508.78 41.6832 511.125 41.6621C513.503 41.6408 515.583 41.9906 517.366 42.7116C519.181 43.4323 520.698 44.4237 521.915 45.6858C523.166 46.9476 524.1 48.4132 524.718 50.0827C525.37 51.7185 525.703 53.4408 525.72 55.2497C525.736 57.0586 525.433 58.7867 524.812 60.4338C524.224 62.0807 523.316 63.5629 522.088 64.8805C520.893 66.1643 519.395 67.1828 517.593 67.936C515.824 68.689 513.75 69.0761 511.372 69.0975ZM506.575 55.4219C506.586 56.5943 506.796 57.6142 507.206 58.4816C507.615 59.3154 508.174 59.9637 508.882 60.4263C509.589 60.8555 510.395 61.066 511.3 61.0579C512.204 61.0497 513.006 60.8247 513.706 60.3829C514.405 59.9076 514.952 59.2494 515.346 58.4084C515.74 57.5338 515.932 56.5103 515.921 55.3378C515.911 54.1654 515.701 53.1622 515.291 52.3284C514.881 51.461 514.323 50.8128 513.615 50.3836C512.908 49.9209 512.102 49.6937 511.197 49.7018C510.293 49.7099 509.491 49.9517 508.792 50.427C508.092 50.8688 507.545 51.527 507.151 52.4016C506.757 53.2426 506.565 54.2494 506.575 55.4219ZM555.8 68.1955L546.252 68.2813L546.118 53.4079C546.107 52.1015 545.797 51.1662 545.189 50.6022C544.614 50.0043 543.941 49.7089 543.171 49.7158C542.635 49.7206 542.067 49.8932 541.467 50.2336C540.866 50.5406 540.318 50.981 539.82 51.555C539.323 52.129 538.927 52.7858 538.632 53.5255L538.766 68.3487L529.218 68.4345L528.98 42.0041L537.573 41.9268L537.608 45.8462C538.236 44.869 539.032 44.0578 539.998 43.4126C540.964 42.7339 542.081 42.2213 543.351 41.8749C544.621 41.5284 546.01 41.3484 547.517 41.3349C549.326 41.3186 550.77 41.6239 551.847 42.2507C552.925 42.8776 553.736 43.691 554.281 44.6912C554.826 45.6913 555.188 46.7434 555.365 47.8473C555.542 48.9178 555.635 49.9052 555.643 50.8097L555.8 68.1955Z" fill="#0C3333"/>
<path d="M151.418 142.52C149.811 142.592 148.307 142.324 146.905 141.717C145.501 141.076 144.253 140.159 143.16 138.968C142.1 137.774 141.248 136.354 140.604 134.706C139.992 133.024 139.641 131.195 139.552 129.22C139.464 127.246 139.684 125.425 140.212 123.758C140.741 122.091 141.53 120.614 142.578 119.326C143.627 118.038 144.873 117.027 146.315 116.291C147.791 115.554 149.399 115.146 151.139 115.068C153.114 114.979 154.805 115.306 156.213 116.047C157.655 116.787 158.877 117.856 159.879 119.253L159.696 115.187L167.979 114.814L169.649 151.962L160.111 152.39L159.452 137.732C158.045 140.746 155.367 142.342 151.418 142.52ZM154.771 134.321C155.374 134.294 155.938 134.168 156.465 133.943C156.991 133.718 157.48 133.394 157.93 132.972C158.381 132.549 158.793 132.028 159.168 131.407L158.955 126.688C158.695 126.13 158.371 125.625 157.982 125.173C157.625 124.686 157.221 124.285 156.771 123.97C156.319 123.621 155.839 123.375 155.329 123.23C154.852 123.05 154.362 122.971 153.86 122.994C153.157 123.026 152.511 123.206 151.922 123.534C151.367 123.861 150.884 124.301 150.473 124.856C150.062 125.411 149.755 126.046 149.552 126.759C149.35 127.472 149.266 128.231 149.302 129.034C149.352 130.138 149.613 131.099 150.086 131.916C150.557 132.7 151.188 133.308 151.979 133.742C152.803 134.175 153.734 134.368 154.771 134.321ZM173.351 131.977L172.57 114.608L182.108 114.179L182.792 129.39C182.843 130.527 183.134 131.42 183.667 132.067C184.231 132.678 184.964 132.964 185.868 132.923C186.37 132.901 186.869 132.811 187.365 132.655C187.861 132.498 188.351 132.208 188.835 131.784C189.352 131.358 189.845 130.766 190.314 130.007L189.587 113.843L199.125 113.414L199.839 129.277C199.879 130.181 200.042 130.811 200.326 131.167C200.609 131.489 201.086 131.669 201.759 131.706L202.12 139.738C201.291 139.943 200.543 140.094 199.877 140.191C199.212 140.321 198.628 140.398 198.126 140.42C196.52 140.493 195.235 140.249 194.271 139.688C193.306 139.128 192.663 138.235 192.339 137.009L192.096 136.064C190.931 137.759 189.495 139.014 187.788 139.829C186.113 140.608 184.188 141.047 182.012 141.145C179.369 141.264 177.29 140.535 175.777 138.96C174.298 137.384 173.489 135.056 173.351 131.977ZM206.02 139.563L204.833 113.158L214.371 112.729L215.558 139.134L206.02 139.563ZM204.733 110.949L204.372 102.917L213.91 102.488L214.271 110.52L204.733 110.949ZM229.844 130.494C229.764 128.72 230.18 127.142 231.09 125.76C231.999 124.344 233.289 123.213 234.962 122.367C236.667 121.519 238.624 121.045 240.833 120.946C241.871 120.899 242.845 120.939 243.756 121.066C244.701 121.191 245.515 121.406 246.199 121.711L246.163 120.908C246.108 119.669 245.698 118.766 244.935 118.196C244.205 117.625 243.037 117.376 241.43 117.448C239.958 117.515 238.58 117.828 237.298 118.389C236.047 118.914 234.74 119.677 233.377 120.677L230.349 114.878C232.072 113.661 233.892 112.74 235.809 112.118C237.758 111.46 239.853 111.081 242.095 110.98C246.279 110.792 249.551 111.601 251.912 113.406C254.306 115.176 255.586 117.919 255.753 121.633L255.983 126.754C256.024 127.657 256.186 128.287 256.471 128.643C256.753 128.966 257.231 129.146 257.903 129.183L258.265 137.214C257.502 137.416 256.771 137.567 256.072 137.665C255.407 137.796 254.807 137.873 254.271 137.897C252.564 137.974 251.246 137.731 250.315 137.169C249.416 136.573 248.806 135.678 248.484 134.485L248.24 133.54C247.137 135.099 245.833 136.314 244.33 137.187C242.825 138.026 241.203 138.484 239.462 138.563C237.722 138.641 236.133 138.343 234.694 137.67C233.255 136.997 232.106 136.043 231.245 134.807C230.383 133.538 229.916 132.1 229.844 130.494ZM245.335 130.452C245.691 130.167 245.979 129.869 246.2 129.558C246.419 129.212 246.521 128.873 246.506 128.538L246.418 126.58C245.874 126.403 245.247 126.264 244.538 126.162C243.863 126.058 243.258 126.018 242.722 126.042C241.584 126.093 240.627 126.421 239.849 127.026C239.105 127.63 238.752 128.367 238.792 129.237C238.813 129.705 238.966 130.134 239.252 130.524C239.536 130.88 239.918 131.165 240.397 131.378C240.874 131.558 241.414 131.634 242.017 131.607C242.586 131.581 243.168 131.471 243.762 131.277C244.389 131.047 244.913 130.772 245.335 130.452ZM270.984 123.363C270.866 120.753 271.247 118.405 272.126 116.32C273.036 114.2 274.335 112.515 276.023 111.266C277.709 109.983 279.673 109.291 281.916 109.19C283.622 109.113 285.213 109.444 286.688 110.183C288.162 110.888 289.298 111.91 290.096 113.249L289.459 99.0928L298.997 98.6641L300.171 124.768C300.212 125.671 300.374 126.301 300.658 126.657C300.941 126.98 301.419 127.16 302.091 127.196L302.452 135.228C300.827 135.637 299.496 135.864 298.459 135.911C296.852 135.983 295.567 135.739 294.603 135.179C293.639 134.618 292.995 133.725 292.672 132.499L292.428 131.554C291.597 133.201 290.428 134.427 288.921 135.233C287.415 136.038 285.792 136.48 284.051 136.558C282.244 136.64 280.556 136.38 278.986 135.78C277.45 135.178 276.086 134.301 274.894 133.147C273.734 131.959 272.815 130.541 272.138 128.895C271.459 127.215 271.074 125.371 270.984 123.363ZM290.697 125.495L290.485 120.777C290.149 120.02 289.7 119.37 289.139 118.825C288.61 118.245 288.02 117.802 287.369 117.496C286.718 117.19 286.058 117.052 285.389 117.082C284.686 117.114 284.04 117.294 283.452 117.622C282.896 117.949 282.413 118.39 282.002 118.945C281.591 119.5 281.284 120.134 281.082 120.847C280.879 121.56 280.796 122.319 280.832 123.122C280.869 123.959 281.02 124.706 281.285 125.365C281.583 126.022 281.977 126.591 282.468 127.072C282.958 127.52 283.526 127.863 284.174 128.102C284.822 128.341 285.531 128.444 286.301 128.409C286.769 128.388 287.202 128.318 287.599 128.2C287.995 128.048 288.372 127.863 288.731 127.646C289.089 127.395 289.427 127.095 289.747 126.745C290.099 126.361 290.415 125.944 290.697 125.495ZM305.712 126.028L304.931 108.659L314.469 108.23L315.153 123.44C315.204 124.578 315.496 125.471 316.028 126.117C316.592 126.729 317.326 127.015 318.229 126.974C318.731 126.952 319.23 126.862 319.726 126.706C320.222 126.549 320.712 126.259 321.196 125.835C321.714 125.409 322.207 124.817 322.676 124.058L321.949 107.894L331.487 107.465L332.2 123.328C332.241 124.232 332.403 124.862 332.687 125.218C332.97 125.54 333.448 125.72 334.12 125.757L334.481 133.789C333.652 133.994 332.904 134.145 332.238 134.242C331.573 134.372 330.99 134.449 330.488 134.471C328.881 134.543 327.596 134.299 326.632 133.739C325.668 133.179 325.024 132.286 324.701 131.059L324.457 130.115C323.293 131.81 321.857 133.065 320.15 133.88C318.474 134.659 316.549 135.098 314.374 135.195C311.73 135.314 309.652 134.586 308.139 133.011C306.66 131.434 305.851 129.107 305.712 126.028ZM360.271 133.133C357.962 133.236 355.67 132.97 353.395 132.335C351.151 131.665 349.227 130.644 347.623 129.275L350.622 123.255C352.31 124.252 353.921 125.018 355.454 125.552C357.02 126.086 358.423 126.324 359.661 126.269C360.364 126.237 360.879 126.13 361.206 125.948C361.531 125.732 361.684 125.407 361.665 124.971C361.651 124.67 361.523 124.425 361.28 124.234C361.036 124.044 360.642 123.861 360.098 123.684C359.587 123.506 358.925 123.317 358.111 123.119C356.003 122.476 354.232 121.868 352.798 121.296C351.397 120.721 350.325 119.998 349.581 119.126C348.87 118.219 348.48 116.996 348.41 115.457C348.329 113.65 348.709 112.04 349.551 110.627C350.392 109.181 351.631 108.018 353.268 107.14C354.938 106.26 356.962 105.767 359.338 105.66C361.112 105.58 362.898 105.785 364.697 106.274C366.529 106.728 368.313 107.637 370.051 109.001L366.699 114.987C364.979 114.025 363.523 113.352 362.333 112.97C361.175 112.586 360.145 112.414 359.241 112.455C358.806 112.475 358.423 112.542 358.093 112.657C357.797 112.771 357.569 112.933 357.411 113.141C357.252 113.349 357.181 113.621 357.196 113.955C357.211 114.29 357.341 114.569 357.586 114.793C357.829 114.983 358.206 115.167 358.717 115.346C359.227 115.49 359.871 115.663 360.652 115.862C362.958 116.429 364.846 117.032 366.316 117.67C367.786 118.275 368.877 119.047 369.59 119.988C370.336 120.927 370.745 122.182 370.815 123.755C370.94 126.533 370.051 128.753 368.147 130.414C366.277 132.075 363.651 132.981 360.271 133.133ZM387.83 131.894C385.52 131.998 383.446 131.739 381.608 131.117C379.767 130.462 378.2 129.543 376.906 128.361C375.646 127.177 374.662 125.796 373.954 124.218C373.245 122.64 372.852 120.964 372.772 119.191C372.657 116.647 373.105 114.297 374.115 112.139C375.123 109.947 376.669 108.167 378.754 106.799C380.837 105.398 383.451 104.626 386.597 104.485C389.743 104.344 392.415 104.861 394.614 106.036C396.813 107.212 398.512 108.812 399.71 110.837C400.907 112.862 401.561 115.097 401.671 117.54C401.693 118.042 401.683 118.562 401.64 119.1C401.629 119.604 401.6 120.058 401.551 120.463L383.027 121.295C383.136 122.229 383.422 122.988 383.884 123.57C384.378 124.118 384.966 124.511 385.647 124.749C386.362 124.985 387.088 125.086 387.824 125.053C388.861 125.007 389.821 124.729 390.704 124.22C391.62 123.709 392.21 123.029 392.473 122.178L400.659 124.124C400.019 125.561 399.088 126.844 397.864 127.972C396.674 129.099 395.24 130.018 393.562 130.731C391.882 131.41 389.971 131.798 387.83 131.894ZM382.569 115.581L391.304 115.189C391.164 114.323 390.88 113.598 390.451 113.014C390.056 112.428 389.533 111.982 388.882 111.676C388.265 111.368 387.554 111.233 386.751 111.269C385.948 111.305 385.236 111.505 384.615 111.868C384.028 112.229 383.547 112.721 383.173 113.341C382.831 113.96 382.63 114.707 382.569 115.581ZM431.951 129.408L422.413 129.836L421.745 114.977C421.686 113.672 421.343 112.749 420.715 112.207C420.119 111.63 419.436 111.359 418.666 111.394C418.131 111.418 417.57 111.611 416.982 111.972C416.393 112.301 415.861 112.76 415.384 113.352C414.908 113.943 414.536 114.614 414.268 115.364L414.933 130.173L405.396 130.601L404.208 104.197L412.792 103.811L412.968 107.726C413.561 106.727 414.328 105.888 415.27 105.208C416.21 104.495 417.309 103.943 418.565 103.551C419.822 103.159 421.203 102.93 422.709 102.862C424.517 102.781 425.97 103.034 427.069 103.622C428.169 104.209 429.009 104.993 429.59 105.973C430.17 106.953 430.569 107.991 430.786 109.088C431.001 110.152 431.129 111.135 431.17 112.039L431.951 129.408ZM447.189 129.226C444.88 129.33 442.587 129.064 440.312 128.428C438.069 127.758 436.145 126.738 434.541 125.368L437.54 119.348C439.228 120.345 440.838 121.111 442.371 121.646C443.938 122.179 445.34 122.418 446.578 122.362C447.281 122.331 447.796 122.224 448.123 122.041C448.449 121.825 448.602 121.5 448.582 121.065C448.569 120.764 448.44 120.518 448.197 120.328C447.954 120.137 447.56 119.954 447.015 119.777C446.504 119.599 445.842 119.411 445.028 119.213C442.92 118.57 441.149 117.962 439.715 117.389C438.314 116.815 437.242 116.092 436.499 115.22C435.787 114.313 435.397 113.09 435.328 111.55C435.247 109.743 435.627 108.133 436.469 106.72C437.309 105.274 438.548 104.112 440.185 103.233C441.856 102.353 443.879 101.86 446.255 101.753C448.029 101.674 449.815 101.878 451.615 102.368C453.446 102.822 455.231 103.731 456.969 105.095L453.616 111.08C451.896 110.118 450.441 109.446 449.25 109.063C448.092 108.679 447.062 108.508 446.158 108.548C445.723 108.568 445.341 108.635 445.011 108.751C444.714 108.865 444.486 109.026 444.328 109.234C444.17 109.442 444.098 109.714 444.113 110.049C444.128 110.383 444.258 110.662 444.503 110.886C444.746 111.076 445.123 111.261 445.634 111.439C446.144 111.584 446.789 111.756 447.569 111.956C449.875 112.523 451.763 113.125 453.234 113.763C454.703 114.368 455.794 115.141 456.507 116.081C457.253 117.02 457.662 118.276 457.733 119.849C457.858 122.626 456.968 124.846 455.064 126.508C453.194 128.168 450.569 129.074 447.189 129.226Z" fill="#0C3333"/>
</svg>
